<svg xmlns="http://www.w3.org/2000/svg" viewBox="-4035.981 -2249.905 63.889 63.891">
  <defs>
    <style>
      .cls-1 {
        fill: #697769;
      }
    </style>
  </defs>
  <path id="edit" class="cls-1" d="M59.064,4.626,55.528,1.089a3.711,3.711,0,0,0-5.236,0L43.934,7.449l8.749,8.795,2.859-2.859h0l3.522-3.522A3.708,3.708,0,0,0,59.064,4.626ZM10.565,45.6,14.56,49.59l-5.493,1.5ZM50.279,15.139,45.017,9.877l1.754-1.754,5.263,5.262Zm-1.754,1.754L16.947,48.47l-5.262-5.262L43.263,11.631Zm4.158-.649L43.934,7.449,9.054,42.331l-.233.233L6.19,52.214,4.669,53.735a1.24,1.24,0,1,0,1.754,1.754l1.521-1.521,9.65-2.633L50.281,18.648h0l.554-.554ZM57.31,8.109l-3.522,3.522L48.525,6.368l3.522-3.522a1.224,1.224,0,0,1,1.728,0L57.31,6.381A1.223,1.223,0,0,1,57.31,8.109Z" transform="translate(-4040.235 -2240.505) rotate(-9)"/>
</svg>
