<svg id="graph" xmlns="http://www.w3.org/2000/svg" viewBox="0 0 586.05 583.18">
  <defs>
    <style>
      .cls-1, .cls-2, .cls-3, .cls-4, .cls-5, .cls-6, .cls-7, .cls-8 {
        fill: none;
      }

      .cls-1, .cls-2, .cls-4, .cls-5, .cls-6, .cls-7, .cls-8 {
        stroke: #e4d1cb;
        stroke-miterlimit: 10;
      }

      .cls-1 {
        stroke-width: 0.88px;
      }

      .cls-2 {
        stroke-width: 0.87px;
      }

      .cls-4 {
        stroke-width: 7.76px;
      }

      .cls-5 {
        stroke-width: 2.59px;
      }

      .cls-6 {
        stroke-width: 5.17px;
      }

      .cls-7 {
        stroke-width: 1.29px;
      }

      .cls-8 {
        stroke-width: 1.24px;
      }
    </style>
  </defs>
  <title>graph</title>
  <g id="movingCircle">
    <g>
      <line class="cls-1" x1="479.87" y1="473" x2="501.13" y2="494.26"/>
      <line class="cls-1" x1="482.17" y1="470.69" x2="503.68" y2="491.67"/>
      <line class="cls-1" x1="484.43" y1="468.34" x2="506.21" y2="489.05"/>
      <line class="cls-1" x1="486.66" y1="465.97" x2="508.7" y2="486.4"/>
      <line class="cls-1" x1="488.87" y1="463.56" x2="511.16" y2="483.72"/>
      <line class="cls-1" x1="491.04" y1="461.13" x2="513.58" y2="481.01"/>
      <line class="cls-1" x1="493.18" y1="458.68" x2="515.97" y2="478.27"/>
      <line class="cls-1" x1="495.29" y1="456.19" x2="518.33" y2="475.5"/>
      <line class="cls-1" x1="497.37" y1="453.68" x2="520.65" y2="472.7"/>
      <line class="cls-1" x1="499.42" y1="451.15" x2="522.93" y2="469.87"/>
      <line class="cls-1" x1="501.44" y1="448.59" x2="525.18" y2="467.01"/>
      <line class="cls-1" x1="503.42" y1="446" x2="527.4" y2="464.12"/>
      <line class="cls-1" x1="505.37" y1="443.39" x2="529.57" y2="461.21"/>
      <line class="cls-1" x1="507.29" y1="440.75" x2="531.71" y2="458.27"/>
      <line class="cls-1" x1="509.17" y1="438.1" x2="533.82" y2="455.3"/>
      <line class="cls-1" x1="511.03" y1="435.41" x2="535.88" y2="452.31"/>
      <line class="cls-1" x1="512.84" y1="432.71" x2="537.91" y2="449.29"/>
      <line class="cls-1" x1="514.63" y1="429.98" x2="539.9" y2="446.24"/>
      <line class="cls-1" x1="516.37" y1="427.23" x2="541.85" y2="443.17"/>
      <line class="cls-1" x1="518.09" y1="424.46" x2="543.76" y2="440.08"/>
      <line class="cls-1" x1="519.77" y1="421.66" x2="545.64" y2="436.96"/>
      <line class="cls-1" x1="521.41" y1="418.85" x2="547.47" y2="433.82"/>
      <line class="cls-1" x1="523.02" y1="416.01" x2="549.27" y2="430.66"/>
      <line class="cls-1" x1="524.59" y1="413.16" x2="551.02" y2="427.47"/>
      <line class="cls-1" x1="526.13" y1="410.28" x2="552.74" y2="424.26"/>
      <line class="cls-1" x1="527.63" y1="407.39" x2="554.41" y2="421.03"/>
      <line class="cls-1" x1="529.09" y1="404.48" x2="556.04" y2="417.78"/>
      <line class="cls-1" x1="530.52" y1="401.55" x2="557.63" y2="414.51"/>
      <line class="cls-1" x1="531.91" y1="398.6" x2="559.19" y2="411.22"/>
      <line class="cls-1" x1="533.26" y1="395.63" x2="560.7" y2="407.91"/>
      <line class="cls-1" x1="534.58" y1="392.65" x2="562.16" y2="404.59"/>
      <line class="cls-1" x1="535.86" y1="389.65" x2="563.59" y2="401.24"/>
      <line class="cls-1" x1="537.1" y1="386.64" x2="564.97" y2="397.88"/>
      <line class="cls-1" x1="538.3" y1="383.61" x2="566.31" y2="394.5"/>
      <line class="cls-1" x1="539.47" y1="380.56" x2="567.61" y2="391.1"/>
      <line class="cls-1" x1="540.59" y1="377.51" x2="568.87" y2="387.69"/>
      <line class="cls-1" x1="541.68" y1="374.43" x2="570.08" y2="384.26"/>
      <line class="cls-1" x1="542.73" y1="371.35" x2="571.25" y2="380.81"/>
      <line class="cls-1" x1="543.74" y1="368.25" x2="572.38" y2="377.35"/>
      <line class="cls-1" x1="544.71" y1="365.14" x2="573.46" y2="373.88"/>
      <line class="cls-1" x1="545.64" y1="362.01" x2="574.5" y2="370.4"/>
      <line class="cls-1" x1="546.53" y1="358.88" x2="575.5" y2="366.9"/>
      <line class="cls-1" x1="547.39" y1="355.73" x2="576.45" y2="363.39"/>
      <line class="cls-1" x1="548.2" y1="352.57" x2="577.36" y2="359.87"/>
      <line class="cls-1" x1="548.97" y1="349.41" x2="578.22" y2="356.33"/>
      <line class="cls-1" x1="549.71" y1="346.23" x2="579.04" y2="352.79"/>
      <line class="cls-1" x1="550.4" y1="343.05" x2="579.81" y2="349.23"/>
      <line class="cls-1" x1="551.05" y1="339.85" x2="580.54" y2="345.67"/>
      <line class="cls-1" x1="551.67" y1="336.65" x2="581.22" y2="342.1"/>
      <line class="cls-1" x1="552.24" y1="333.44" x2="581.86" y2="338.52"/>
      <line class="cls-1" x1="552.77" y1="330.23" x2="582.46" y2="334.93"/>
      <line class="cls-1" x1="553.27" y1="327.01" x2="583.01" y2="331.33"/>
      <line class="cls-1" x1="553.72" y1="323.78" x2="583.51" y2="327.73"/>
      <line class="cls-1" x1="554.13" y1="320.55" x2="583.97" y2="324.12"/>
      <line class="cls-1" x1="554.5" y1="317.31" x2="584.38" y2="320.51"/>
      <line class="cls-1" x1="554.83" y1="314.06" x2="584.75" y2="316.89"/>
      <line class="cls-1" x1="555.12" y1="310.82" x2="585.07" y2="313.27"/>
      <line class="cls-1" x1="555.37" y1="307.57" x2="585.35" y2="309.64"/>
      <line class="cls-1" x1="555.57" y1="304.31" x2="585.58" y2="306.01"/>
      <line class="cls-1" x1="555.74" y1="301.06" x2="585.77" y2="302.38"/>
      <line class="cls-1" x1="555.87" y1="297.8" x2="585.91" y2="298.75"/>
      <line class="cls-1" x1="555.95" y1="294.54" x2="586" y2="295.11"/>
      <line class="cls-1" x1="555.99" y1="291.28" x2="586.05" y2="291.47"/>
      <line class="cls-1" x1="556" y1="288.03" x2="586.05" y2="287.84"/>
      <line class="cls-1" x1="555.96" y1="284.77" x2="586.01" y2="284.2"/>
      <line class="cls-1" x1="555.88" y1="281.51" x2="585.92" y2="280.56"/>
      <line class="cls-1" x1="555.76" y1="278.25" x2="585.78" y2="276.93"/>
      <line class="cls-1" x1="555.6" y1="274.99" x2="585.6" y2="273.3"/>
      <line class="cls-1" x1="555.4" y1="271.74" x2="585.38" y2="269.67"/>
      <line class="cls-1" x1="555.15" y1="268.49" x2="585.11" y2="266.04"/>
      <line class="cls-1" x1="554.87" y1="265.24" x2="584.79" y2="262.42"/>
      <line class="cls-1" x1="554.55" y1="262" x2="584.43" y2="258.8"/>
      <line class="cls-1" x1="554.18" y1="258.76" x2="584.02" y2="255.18"/>
      <line class="cls-1" x1="553.77" y1="255.53" x2="583.57" y2="251.57"/>
      <line class="cls-1" x1="553.33" y1="252.3" x2="583.07" y2="247.97"/>
      <line class="cls-1" x1="552.84" y1="249.08" x2="582.53" y2="244.37"/>
      <line class="cls-1" x1="552.31" y1="245.86" x2="581.94" y2="240.78"/>
      <line class="cls-1" x1="551.75" y1="242.65" x2="581.3" y2="237.2"/>
      <line class="cls-1" x1="551.14" y1="239.45" x2="580.62" y2="233.63"/>
      <line class="cls-1" x1="550.49" y1="236.25" x2="579.9" y2="230.07"/>
      <line class="cls-1" x1="549.8" y1="233.07" x2="579.13" y2="226.51"/>
      <line class="cls-1" x1="549.07" y1="229.89" x2="578.32" y2="222.97"/>
      <line class="cls-1" x1="548.3" y1="226.72" x2="577.46" y2="219.43"/>
      <line class="cls-1" x1="547.5" y1="223.56" x2="576.56" y2="215.91"/>
      <line class="cls-1" x1="546.65" y1="220.42" x2="575.61" y2="212.4"/>
      <line class="cls-1" x1="545.76" y1="217.28" x2="574.62" y2="208.9"/>
      <line class="cls-1" x1="544.84" y1="214.16" x2="573.59" y2="205.41"/>
      <line class="cls-1" x1="543.87" y1="211.04" x2="572.51" y2="201.93"/>
      <line class="cls-1" x1="542.87" y1="207.94" x2="571.39" y2="198.47"/>
      <line class="cls-1" x1="541.82" y1="204.85" x2="570.23" y2="195.03"/>
      <line class="cls-1" x1="540.74" y1="201.78" x2="569.02" y2="191.6"/>
      <line class="cls-1" x1="539.62" y1="198.72" x2="567.77" y2="188.18"/>
      <line class="cls-1" x1="538.46" y1="195.67" x2="566.47" y2="184.78"/>
      <line class="cls-1" x1="537.26" y1="192.64" x2="565.14" y2="181.4"/>
      <line class="cls-1" x1="536.03" y1="189.62" x2="563.76" y2="178.04"/>
      <line class="cls-1" x1="534.75" y1="186.62" x2="562.34" y2="174.69"/>
      <line class="cls-1" x1="533.44" y1="183.64" x2="560.87" y2="171.36"/>
      <line class="cls-1" x1="532.09" y1="180.67" x2="559.37" y2="168.05"/>
      <line class="cls-1" x1="530.71" y1="177.72" x2="557.82" y2="164.75"/>
      <line class="cls-1" x1="529.29" y1="174.79" x2="556.24" y2="161.48"/>
      <line class="cls-1" x1="527.83" y1="171.87" x2="554.61" y2="158.23"/>
      <line class="cls-1" x1="526.33" y1="168.98" x2="552.94" y2="155"/>
      <line class="cls-1" x1="524.8" y1="166.1" x2="551.23" y2="151.79"/>
      <line class="cls-1" x1="523.23" y1="163.24" x2="549.48" y2="148.6"/>
      <line class="cls-1" x1="521.63" y1="160.4" x2="547.69" y2="145.43"/>
      <line class="cls-1" x1="519.99" y1="157.59" x2="545.86" y2="142.29"/>
      <line class="cls-1" x1="518.32" y1="154.79" x2="543.99" y2="139.17"/>
      <line class="cls-1" x1="516.61" y1="152.02" x2="542.08" y2="136.07"/>
      <line class="cls-1" x1="514.86" y1="149.26" x2="540.14" y2="133"/>
      <line class="cls-1" x1="513.08" y1="146.53" x2="538.15" y2="129.95"/>
      <line class="cls-1" x1="511.27" y1="143.82" x2="536.13" y2="126.93"/>
      <line class="cls-1" x1="509.42" y1="141.14" x2="534.07" y2="123.93"/>
      <line class="cls-1" x1="507.54" y1="138.47" x2="531.97" y2="120.96"/>
      <line class="cls-1" x1="505.63" y1="135.83" x2="529.83" y2="118.02"/>
      <line class="cls-1" x1="503.68" y1="133.22" x2="527.66" y2="115.1"/>
      <line class="cls-1" x1="501.7" y1="130.63" x2="525.45" y2="112.21"/>
      <line class="cls-1" x1="499.69" y1="128.07" x2="523.21" y2="109.35"/>
      <line class="cls-1" x1="497.65" y1="125.53" x2="520.93" y2="106.52"/>
      <line class="cls-1" x1="495.57" y1="123.01" x2="518.61" y2="103.71"/>
      <line class="cls-1" x1="493.47" y1="120.53" x2="516.26" y2="100.94"/>
      <line class="cls-1" x1="491.33" y1="118.07" x2="513.87" y2="98.19"/>
      <line class="cls-1" x1="489.16" y1="115.63" x2="511.45" y2="95.48"/>
      <line class="cls-1" x1="486.96" y1="113.23" x2="509" y2="92.79"/>
      <line class="cls-1" x1="484.73" y1="110.85" x2="506.51" y2="90.14"/>
      <line class="cls-1" x1="482.47" y1="108.5" x2="503.99" y2="87.52"/>
      <line class="cls-1" x1="480.18" y1="106.18" x2="501.43" y2="84.93"/>
      <line class="cls-1" x1="477.87" y1="103.89" x2="498.85" y2="82.37"/>
      <line class="cls-1" x1="475.52" y1="101.62" x2="496.23" y2="79.84"/>
      <line class="cls-1" x1="473.14" y1="99.39" x2="493.58" y2="77.35"/>
      <line class="cls-1" x1="470.74" y1="97.19" x2="490.9" y2="74.89"/>
      <line class="cls-1" x1="468.31" y1="95.01" x2="488.19" y2="72.47"/>
      <line class="cls-1" x1="465.86" y1="92.87" x2="485.45" y2="70.08"/>
      <line class="cls-1" x1="463.37" y1="90.76" x2="482.68" y2="67.72"/>
      <line class="cls-1" x1="460.86" y1="88.68" x2="479.88" y2="65.4"/>
      <line class="cls-1" x1="458.33" y1="86.63" x2="477.05" y2="63.12"/>
      <line class="cls-1" x1="455.77" y1="84.62" x2="474.19" y2="60.87"/>
      <line class="cls-1" x1="453.18" y1="82.63" x2="471.3" y2="58.66"/>
      <line class="cls-1" x1="450.57" y1="80.68" x2="468.39" y2="56.48"/>
      <line class="cls-1" x1="447.93" y1="78.76" x2="465.45" y2="54.34"/>
      <line class="cls-1" x1="445.27" y1="76.88" x2="462.48" y2="52.24"/>
      <line class="cls-1" x1="442.59" y1="75.03" x2="459.48" y2="50.17"/>
      <line class="cls-1" x1="439.89" y1="73.21" x2="456.47" y2="48.14"/>
      <line class="cls-1" x1="437.16" y1="71.43" x2="453.42" y2="46.15"/>
      <line class="cls-1" x1="434.41" y1="69.68" x2="450.35" y2="44.2"/>
      <line class="cls-1" x1="431.63" y1="67.96" x2="447.26" y2="42.29"/>
      <line class="cls-1" x1="428.84" y1="66.29" x2="444.14" y2="40.42"/>
      <line class="cls-1" x1="426.03" y1="64.64" x2="441" y2="38.58"/>
      <line class="cls-1" x1="423.19" y1="63.03" x2="437.84" y2="36.79"/>
      <line class="cls-1" x1="420.34" y1="61.46" x2="434.65" y2="35.03"/>
      <line class="cls-1" x1="417.46" y1="59.92" x2="431.44" y2="33.32"/>
      <line class="cls-1" x1="414.57" y1="58.42" x2="428.21" y2="31.64"/>
      <line class="cls-1" x1="411.66" y1="56.96" x2="424.96" y2="30.01"/>
      <line class="cls-1" x1="408.73" y1="55.53" x2="421.69" y2="28.42"/>
      <line class="cls-1" x1="405.78" y1="54.14" x2="418.4" y2="26.87"/>
      <line class="cls-1" x1="402.81" y1="52.79" x2="415.09" y2="25.36"/>
      <line class="cls-1" x1="399.83" y1="51.47" x2="411.77" y2="23.89"/>
      <line class="cls-1" x1="396.83" y1="50.19" x2="408.42" y2="22.46"/>
      <line class="cls-1" x1="393.82" y1="48.95" x2="405.06" y2="21.08"/>
      <line class="cls-1" x1="390.79" y1="47.75" x2="401.68" y2="19.74"/>
      <line class="cls-1" x1="387.74" y1="46.59" x2="398.28" y2="18.44"/>
      <line class="cls-1" x1="384.68" y1="45.46" x2="394.86" y2="17.18"/>
      <line class="cls-1" x1="381.61" y1="44.37" x2="391.44" y2="15.97"/>
      <line class="cls-1" x1="378.53" y1="43.33" x2="387.99" y2="14.8"/>
      <line class="cls-1" x1="375.43" y1="42.32" x2="384.53" y2="13.67"/>
      <line class="cls-1" x1="372.31" y1="41.34" x2="381.06" y2="12.59"/>
      <line class="cls-1" x1="369.19" y1="40.41" x2="377.58" y2="11.55"/>
      <line class="cls-1" x1="366.06" y1="39.52" x2="374.08" y2="10.56"/>
      <line class="cls-1" x1="362.91" y1="38.67" x2="370.57" y2="9.6"/>
      <line class="cls-1" x1="359.75" y1="37.85" x2="367.05" y2="8.7"/>
      <line class="cls-1" x1="356.59" y1="37.08" x2="363.51" y2="7.83"/>
      <line class="cls-1" x1="353.41" y1="36.35" x2="359.97" y2="7.02"/>
      <line class="cls-1" x1="350.23" y1="35.65" x2="356.41" y2="6.24"/>
      <line class="cls-1" x1="347.03" y1="35" x2="352.85" y2="5.51"/>
      <line class="cls-1" x1="343.83" y1="34.39" x2="349.28" y2="4.83"/>
      <line class="cls-1" x1="340.62" y1="33.81" x2="345.7" y2="4.19"/>
      <line class="cls-1" x1="337.41" y1="33.28" x2="342.11" y2="3.6"/>
      <line class="cls-1" x1="334.19" y1="32.79" x2="338.51" y2="3.05"/>
      <line class="cls-1" x1="330.96" y1="32.34" x2="334.91" y2="2.54"/>
      <line class="cls-1" x1="327.72" y1="31.93" x2="331.3" y2="2.08"/>
      <line class="cls-1" x1="324.49" y1="31.55" x2="327.69" y2="1.67"/>
      <line class="cls-1" x1="321.24" y1="31.22" x2="324.07" y2="1.3"/>
      <line class="cls-1" x1="318" y1="30.94" x2="320.45" y2="0.98"/>
      <line class="cls-1" x1="314.75" y1="30.69" x2="316.82" y2="0.7"/>
      <line class="cls-1" x1="311.49" y1="30.48" x2="313.19" y2="0.47"/>
      <line class="cls-1" x1="308.24" y1="30.31" x2="309.56" y2="0.29"/>
      <line class="cls-1" x1="304.98" y1="30.19" x2="305.93" y2="0.15"/>
      <line class="cls-1" x1="301.72" y1="30.1" x2="302.29" y2="0.05"/>
      <line class="cls-1" x1="298.46" y1="30.06" x2="298.65" y2="0.01"/>
      <line class="cls-1" x1="295.2" y1="30.06" x2="295.02"/>
      <line class="cls-1" x1="291.94" y1="30.09" x2="291.38" y2="0.05"/>
      <line class="cls-1" x1="288.69" y1="30.17" x2="287.74" y2="0.13"/>
      <line class="cls-1" x1="285.43" y1="30.29" x2="284.11" y2="0.27"/>
      <line class="cls-1" x1="282.17" y1="30.46" x2="280.47" y2="0.45"/>
      <line class="cls-1" x1="278.92" y1="30.66" x2="276.84" y2="0.67"/>
      <line class="cls-1" x1="275.67" y1="30.9" x2="273.22" y2="0.95"/>
      <line class="cls-1" x1="272.42" y1="31.18" x2="269.59" y2="1.26"/>
      <line class="cls-1" x1="269.18" y1="31.51" x2="265.98" y2="1.62"/>
      <line class="cls-1" x1="265.94" y1="31.87" x2="262.36" y2="2.03"/>
      <line class="cls-1" x1="262.71" y1="32.28" x2="258.75" y2="2.49"/>
      <line class="cls-1" x1="259.48" y1="32.73" x2="255.15" y2="2.98"/>
      <line class="cls-1" x1="256.25" y1="33.21" x2="251.55" y2="3.53"/>
      <line class="cls-1" x1="253.04" y1="33.74" x2="247.96" y2="4.12"/>
      <line class="cls-1" x1="249.83" y1="34.31" x2="244.38" y2="4.75"/>
      <line class="cls-1" x1="246.63" y1="34.92" x2="240.81" y2="5.43"/>
      <line class="cls-1" x1="243.43" y1="35.56" x2="237.24" y2="6.15"/>
      <line class="cls-1" x1="240.25" y1="36.25" x2="233.69" y2="6.92"/>
      <line class="cls-1" x1="237.07" y1="36.98" x2="230.14" y2="7.73"/>
      <line class="cls-1" x1="233.9" y1="37.75" x2="226.61" y2="8.59"/>
      <line class="cls-1" x1="230.74" y1="38.56" x2="223.09" y2="9.49"/>
      <line class="cls-1" x1="227.6" y1="39.4" x2="219.57" y2="10.44"/>
      <line class="cls-1" x1="224.46" y1="40.29" x2="216.07" y2="11.43"/>
      <line class="cls-1" x1="221.33" y1="41.22" x2="212.59" y2="12.46"/>
      <line class="cls-1" x1="218.22" y1="42.18" x2="209.11" y2="13.54"/>
      <line class="cls-1" x1="215.12" y1="43.19" x2="205.65" y2="14.66"/>
      <line class="cls-1" x1="212.03" y1="44.23" x2="202.21" y2="15.83"/>
      <line class="cls-1" x1="208.96" y1="45.31" x2="198.78" y2="17.04"/>
      <line class="cls-1" x1="205.9" y1="46.43" x2="195.36" y2="18.29"/>
      <line class="cls-1" x1="202.85" y1="47.59" x2="191.96" y2="19.58"/>
      <line class="cls-1" x1="199.82" y1="48.79" x2="188.58" y2="20.92"/>
      <line class="cls-1" x1="196.8" y1="50.03" x2="185.21" y2="22.3"/>
      <line class="cls-1" x1="193.8" y1="51.3" x2="181.87" y2="23.72"/>
      <line class="cls-1" x1="190.82" y1="52.61" x2="178.54" y2="25.18"/>
      <line class="cls-1" x1="187.85" y1="53.96" x2="175.22" y2="26.68"/>
      <line class="cls-1" x1="184.9" y1="55.34" x2="171.93" y2="28.23"/>
      <line class="cls-1" x1="181.97" y1="56.77" x2="168.66" y2="29.82"/>
      <line class="cls-1" x1="179.05" y1="58.23" x2="165.41" y2="31.45"/>
      <line class="cls-1" x1="176.16" y1="59.72" x2="162.18" y2="33.12"/>
      <line class="cls-1" x1="173.28" y1="61.25" x2="158.97" y2="34.83"/>
      <line class="cls-1" x1="170.42" y1="62.82" x2="155.78" y2="36.58"/>
      <line class="cls-1" x1="167.58" y1="64.42" x2="152.61" y2="38.36"/>
      <line class="cls-1" x1="164.77" y1="66.06" x2="149.47" y2="40.19"/>
      <line class="cls-1" x1="161.97" y1="67.74" x2="146.35" y2="42.06"/>
      <line class="cls-1" x1="159.19" y1="69.45" x2="143.25" y2="43.97"/>
      <line class="cls-1" x1="156.44" y1="71.19" x2="140.18" y2="45.92"/>
      <line class="cls-1" x1="153.71" y1="72.97" x2="137.13" y2="47.9"/>
      <line class="cls-1" x1="151" y1="74.78" x2="134.11" y2="49.93"/>
      <line class="cls-1" x1="148.31" y1="76.63" x2="131.11" y2="51.99"/>
      <line class="cls-1" x1="145.65" y1="78.51" x2="128.14" y2="54.09"/>
      <line class="cls-1" x1="143.01" y1="80.42" x2="125.2" y2="56.22"/>
      <line class="cls-1" x1="140.4" y1="82.37" x2="122.28" y2="58.39"/>
      <line class="cls-1" x1="137.81" y1="84.35" x2="119.39" y2="60.6"/>
      <line class="cls-1" x1="135.25" y1="86.36" x2="116.53" y2="62.85"/>
      <line class="cls-1" x1="132.71" y1="88.41" x2="113.69" y2="65.13"/>
      <line class="cls-1" x1="130.19" y1="90.48" x2="110.89" y2="67.44"/>
      <line class="cls-1" x1="127.71" y1="92.59" x2="108.12" y2="69.8"/>
      <line class="cls-1" x1="125.25" y1="94.73" x2="105.37" y2="72.18"/>
      <line class="cls-1" x1="122.81" y1="96.9" x2="102.66" y2="74.6"/>
      <line class="cls-1" x1="120.41" y1="99.09" x2="99.97" y2="77.06"/>
      <line class="cls-1" x1="118.03" y1="101.32" x2="97.32" y2="79.54"/>
      <line class="cls-1" x1="115.68" y1="103.58" x2="94.7" y2="82.07"/>
      <line class="cls-1" x1="113.36" y1="105.87" x2="92.11" y2="84.62"/>
      <line class="cls-1" x1="111.07" y1="108.19" x2="89.55" y2="87.21"/>
      <line class="cls-1" x1="108.8" y1="110.53" x2="87.02" y2="89.82"/>
      <line class="cls-1" x1="106.57" y1="112.91" x2="84.53" y2="92.47"/>
      <line class="cls-1" x1="104.37" y1="115.31" x2="82.07" y2="95.15"/>
      <line class="cls-1" x1="102.19" y1="117.74" x2="79.65" y2="97.86"/>
      <line class="cls-1" x1="100.05" y1="120.2" x2="77.26" y2="100.61"/>
      <line class="cls-1" x1="97.94" y1="122.68" x2="74.9" y2="103.38"/>
      <line class="cls-1" x1="95.86" y1="125.19" x2="72.58" y2="106.18"/>
      <line class="cls-1" x1="93.81" y1="127.73" x2="70.3" y2="109.01"/>
      <line class="cls-1" x1="91.8" y1="130.29" x2="68.05" y2="111.87"/>
      <line class="cls-1" x1="89.81" y1="132.87" x2="65.83" y2="114.75"/>
      <line class="cls-1" x1="87.86" y1="135.48" x2="63.66" y2="117.67"/>
      <line class="cls-1" x1="85.94" y1="138.12" x2="61.52" y2="120.61"/>
      <line class="cls-1" x1="84.06" y1="140.78" x2="59.41" y2="123.57"/>
      <line class="cls-1" x1="82.21" y1="143.46" x2="57.35" y2="126.57"/>
      <line class="cls-1" x1="80.39" y1="146.17" x2="55.32" y2="129.59"/>
      <line class="cls-1" x1="78.61" y1="148.9" x2="53.33" y2="132.63"/>
      <line class="cls-1" x1="76.86" y1="151.65" x2="51.38" y2="135.7"/>
      <line class="cls-1" x1="75.14" y1="154.42" x2="49.47" y2="138.8"/>
      <line class="cls-1" x1="73.46" y1="157.21" x2="47.59" y2="141.91"/>
      <line class="cls-1" x1="71.82" y1="160.03" x2="45.76" y2="145.05"/>
      <line class="cls-1" x1="70.21" y1="162.86" x2="43.97" y2="148.22"/>
      <line class="cls-1" x1="68.64" y1="165.72" x2="42.21" y2="151.4"/>
      <line class="cls-1" x1="67.1" y1="168.59" x2="40.5" y2="154.61"/>
      <line class="cls-1" x1="65.6" y1="171.49" x2="38.82" y2="157.84"/>
      <line class="cls-1" x1="64.14" y1="174.4" x2="37.19" y2="161.09"/>
      <line class="cls-1" x1="62.71" y1="177.33" x2="35.6" y2="164.36"/>
      <line class="cls-1" x1="61.32" y1="180.28" x2="34.05" y2="167.65"/>
      <line class="cls-1" x1="59.97" y1="183.24" x2="32.54" y2="170.96"/>
      <line class="cls-1" x1="58.65" y1="186.22" x2="31.07" y2="174.29"/>
      <line class="cls-1" x1="57.37" y1="189.22" x2="29.64" y2="177.63"/>
      <line class="cls-1" x1="56.13" y1="192.24" x2="28.26" y2="181"/>
      <line class="cls-1" x1="54.93" y1="195.27" x2="26.92" y2="184.38"/>
      <line class="cls-1" x1="53.77" y1="198.31" x2="25.62" y2="187.77"/>
      <line class="cls-1" x1="52.64" y1="201.37" x2="24.36" y2="191.19"/>
      <line class="cls-1" x1="51.55" y1="204.44" x2="23.15" y2="194.62"/>
      <line class="cls-1" x1="50.5" y1="207.53" x2="21.98" y2="198.06"/>
      <line class="cls-1" x1="49.49" y1="210.63" x2="20.85" y2="201.52"/>
      <line class="cls-1" x1="48.52" y1="213.74" x2="19.77" y2="204.99"/>
      <line class="cls-1" x1="47.59" y1="216.86" x2="18.73" y2="208.48"/>
      <line class="cls-1" x1="46.7" y1="220" x2="17.74" y2="211.98"/>
      <line class="cls-1" x1="45.85" y1="223.14" x2="16.78" y2="215.49"/>
      <line class="cls-1" x1="45.03" y1="226.3" x2="15.88" y2="219.01"/>
      <line class="cls-1" x1="44.26" y1="229.47" x2="15.01" y2="222.54"/>
      <line class="cls-1" x1="43.53" y1="232.64" x2="14.2" y2="226.09"/>
      <line class="cls-1" x1="42.83" y1="235.83" x2="13.42" y2="229.64"/>
      <line class="cls-1" x1="42.18" y1="239.02" x2="12.69" y2="233.2"/>
      <line class="cls-1" x1="41.57" y1="242.22" x2="12.01" y2="236.77"/>
      <line class="cls-1" x1="40.99" y1="245.43" x2="11.37" y2="240.36"/>
      <line class="cls-1" x1="40.46" y1="248.65" x2="10.77" y2="243.94"/>
      <line class="cls-1" x1="39.97" y1="251.87" x2="10.23" y2="247.54"/>
      <line class="cls-1" x1="39.52" y1="255.1" x2="9.72" y2="251.14"/>
      <line class="cls-1" x1="39.1" y1="258.33" x2="9.26" y2="254.75"/>
      <line class="cls-1" x1="38.73" y1="261.57" x2="8.85" y2="258.36"/>
      <line class="cls-1" x1="38.4" y1="264.81" x2="8.48" y2="261.98"/>
      <line class="cls-1" x1="38.11" y1="268.06" x2="8.16" y2="265.6"/>
      <line class="cls-1" x1="37.87" y1="271.31" x2="7.88" y2="269.23"/>
      <line class="cls-1" x1="37.66" y1="274.56" x2="7.65" y2="272.86"/>
      <line class="cls-1" x1="37.49" y1="277.81" x2="7.47" y2="276.49"/>
      <line class="cls-1" x1="37.37" y1="281.07" x2="7.33" y2="280.13"/>
      <line class="cls-1" x1="37.28" y1="284.33" x2="7.23" y2="283.76"/>
      <line class="cls-1" x1="37.24" y1="287.59" x2="7.18" y2="287.4"/>
      <line class="cls-1" x1="37.24" y1="290.85" x2="7.18" y2="291.04"/>
      <line class="cls-1" x1="37.27" y1="294.11" x2="7.22" y2="294.67"/>
      <line class="cls-1" x1="37.35" y1="297.37" x2="7.31" y2="298.31"/>
      <line class="cls-1" x1="37.47" y1="300.62" x2="7.45" y2="301.95"/>
      <line class="cls-1" x1="37.63" y1="303.88" x2="7.63" y2="305.58"/>
      <line class="cls-1" x1="37.84" y1="307.13" x2="7.85" y2="309.21"/>
      <line class="cls-1" x1="38.08" y1="310.38" x2="8.12" y2="312.84"/>
      <line class="cls-1" x1="38.36" y1="313.63" x2="8.44" y2="316.46"/>
      <line class="cls-1" x1="38.69" y1="316.87" x2="8.8" y2="320.08"/>
      <line class="cls-1" x1="39.05" y1="320.11" x2="9.21" y2="323.69"/>
      <line class="cls-1" x1="39.46" y1="323.35" x2="9.66" y2="327.3"/>
      <line class="cls-1" x1="39.9" y1="326.58" x2="10.16" y2="330.9"/>
      <line class="cls-1" x1="40.39" y1="329.8" x2="10.71" y2="334.5"/>
      <line class="cls-1" x1="40.92" y1="333.02" x2="11.3" y2="338.09"/>
      <line class="cls-1" x1="41.49" y1="336.22" x2="11.93" y2="341.67"/>
      <line class="cls-1" x1="42.09" y1="339.43" x2="12.61" y2="345.24"/>
      <line class="cls-1" x1="42.74" y1="342.62" x2="13.33" y2="348.81"/>
      <line class="cls-1" x1="43.43" y1="345.81" x2="14.1" y2="352.36"/>
      <line class="cls-1" x1="44.16" y1="348.98" x2="14.91" y2="355.91"/>
      <line class="cls-1" x1="44.93" y1="352.15" x2="15.77" y2="359.44"/>
      <line class="cls-1" x1="45.74" y1="355.31" x2="16.67" y2="362.97"/>
      <line class="cls-1" x1="46.58" y1="358.46" x2="17.62" y2="366.48"/>
      <line class="cls-1" x1="47.47" y1="361.59" x2="18.61" y2="369.98"/>
      <line class="cls-1" x1="48.4" y1="364.72" x2="19.64" y2="373.47"/>
      <line class="cls-1" x1="49.36" y1="367.83" x2="20.72" y2="376.94"/>
      <line class="cls-1" x1="50.37" y1="370.93" x2="21.84" y2="380.4"/>
      <line class="cls-1" x1="51.41" y1="374.02" x2="23.01" y2="383.85"/>
      <line class="cls-1" x1="52.49" y1="377.1" x2="24.22" y2="387.28"/>
      <line class="cls-1" x1="53.61" y1="380.16" x2="25.47" y2="390.69"/>
      <line class="cls-1" x1="54.77" y1="383.2" x2="26.76" y2="394.09"/>
      <line class="cls-1" x1="55.97" y1="386.23" x2="28.1" y2="397.47"/>
      <line class="cls-1" x1="57.21" y1="389.25" x2="29.47" y2="400.84"/>
      <line class="cls-1" x1="58.48" y1="392.25" x2="30.9" y2="404.19"/>
      <line class="cls-1" x1="59.79" y1="395.24" x2="32.36" y2="407.52"/>
      <line class="cls-1" x1="61.14" y1="398.2" x2="33.86" y2="410.83"/>
      <line class="cls-1" x1="62.52" y1="401.15" x2="35.41" y2="414.12"/>
      <line class="cls-1" x1="63.95" y1="404.09" x2="37" y2="417.39"/>
      <line class="cls-1" x1="65.4" y1="407" x2="38.63" y2="420.65"/>
      <line class="cls-1" x1="66.9" y1="409.9" x2="40.29" y2="423.88"/>
      <line class="cls-1" x1="68.43" y1="412.77" x2="42" y2="427.09"/>
      <line class="cls-1" x1="70" y1="415.63" x2="43.75" y2="430.28"/>
      <line class="cls-1" x1="71.6" y1="418.47" x2="45.54" y2="433.44"/>
      <line class="cls-1" x1="73.24" y1="421.29" x2="47.37" y2="436.59"/>
      <line class="cls-1" x1="74.92" y1="424.08" x2="49.24" y2="439.71"/>
      <line class="cls-1" x1="76.63" y1="426.86" x2="51.15" y2="442.8"/>
      <line class="cls-1" x1="78.37" y1="429.61" x2="53.1" y2="445.88"/>
      <line class="cls-1" x1="80.15" y1="432.34" x2="55.08" y2="448.92"/>
      <line class="cls-1" x1="81.96" y1="435.05" x2="57.1" y2="451.95"/>
      <line class="cls-1" x1="83.81" y1="437.74" x2="59.17" y2="454.94"/>
      <line class="cls-1" x1="85.69" y1="440.4" x2="61.26" y2="457.91"/>
      <line class="cls-1" x1="87.6" y1="443.04" x2="63.4" y2="460.86"/>
      <line class="cls-1" x1="89.55" y1="445.65" x2="65.57" y2="463.77"/>
      <line class="cls-1" x1="91.53" y1="448.24" x2="67.78" y2="466.66"/>
      <line class="cls-1" x1="93.54" y1="450.81" x2="70.03" y2="469.53"/>
      <line class="cls-1" x1="95.58" y1="453.35" x2="70.87" y2="474.46"/>
      <line class="cls-1" x1="97.66" y1="455.86" x2="69.56" y2="480.99"/>
      <line class="cls-1" x1="99.77" y1="458.35" x2="64.34" y2="490.14"/>
      <line class="cls-1" x1="101.91" y1="460.81" x2="56.5" y2="501.9"/>
      <line class="cls-1" x1="104.07" y1="463.24" x2="52.58" y2="509.74"/>
      <line class="cls-1" x1="106.27" y1="465.65" x2="38.2" y2="529.34"/>
      <line class="cls-1" x1="108.5" y1="468.02" x2="23.65" y2="548.69"/>
      <line class="cls-1" x1="110.76" y1="470.37" x2="0.31" y2="577.69"/>
      <line class="cls-1" x1="113.05" y1="472.7" x2="2.87" y2="582.87"/>
      <line class="cls-1" x1="115.37" y1="474.99" x2="22.27" y2="570.41"/>
      <line class="cls-1" x1="117.71" y1="477.25" x2="44.91" y2="553.31"/>
      <line class="cls-1" x1="120.09" y1="479.48" x2="61.72" y2="543.71"/>
      <line class="cls-2" x1="122.49" y1="481.69" x2="76.1" y2="533.26"/>
      <line class="cls-1" x1="124.92" y1="483.86" x2="83.94" y2="530.65"/>
      <line class="cls-1" x1="127.38" y1="486" x2="98.31" y2="520.19"/>
      <line class="cls-1" x1="129.86" y1="488.11" x2="106.15" y2="516.27"/>
      <line class="cls-1" x1="132.37" y1="490.19" x2="111.38" y2="516.27"/>
      <line class="cls-1" x1="134.9" y1="492.24" x2="116.19" y2="515.76"/>
      <line class="cls-1" x1="137.47" y1="494.26" x2="119.05" y2="518.01"/>
      <line class="cls-1" x1="140.05" y1="496.24" x2="121.93" y2="520.22"/>
      <line class="cls-1" x1="142.66" y1="498.19" x2="124.85" y2="522.4"/>
      <line class="cls-1" x1="145.3" y1="500.11" x2="127.79" y2="524.54"/>
      <line class="cls-1" x1="147.96" y1="501.99" x2="130.75" y2="526.64"/>
      <line class="cls-1" x1="150.64" y1="503.85" x2="133.75" y2="528.7"/>
      <line class="cls-1" x1="153.35" y1="505.66" x2="136.77" y2="530.73"/>
      <line class="cls-1" x1="156.07" y1="507.45" x2="139.81" y2="532.72"/>
      <line class="cls-1" x1="158.83" y1="509.2" x2="142.88" y2="534.67"/>
      <line class="cls-1" x1="161.6" y1="510.91" x2="145.97" y2="536.58"/>
      <line class="cls-1" x1="164.39" y1="512.59" x2="149.09" y2="538.46"/>
      <line class="cls-1" x1="167.21" y1="514.23" x2="152.23" y2="540.29"/>
      <line class="cls-1" x1="170.04" y1="515.84" x2="155.4" y2="542.09"/>
      <line class="cls-1" x1="172.9" y1="517.41" x2="158.58" y2="543.84"/>
      <line class="cls-1" x1="175.77" y1="518.95" x2="161.79" y2="545.56"/>
      <line class="cls-1" x1="178.66" y1="520.45" x2="165.02" y2="547.23"/>
      <line class="cls-1" x1="181.58" y1="521.92" x2="168.27" y2="548.86"/>
      <line class="cls-1" x1="184.51" y1="523.34" x2="171.54" y2="550.46"/>
      <line class="cls-1" x1="187.45" y1="524.73" x2="174.83" y2="552.01"/>
      <line class="cls-1" x1="190.42" y1="526.09" x2="178.14" y2="553.52"/>
      <line class="cls-1" x1="193.4" y1="527.4" x2="181.47" y2="554.98"/>
      <line class="cls-1" x1="196.4" y1="528.68" x2="184.81" y2="556.41"/>
      <line class="cls-1" x1="199.42" y1="529.92" x2="188.18" y2="557.79"/>
      <line class="cls-1" x1="202.44" y1="531.12" x2="191.56" y2="559.14"/>
      <line class="cls-1" x1="205.49" y1="532.29" x2="194.95" y2="560.43"/>
      <line class="cls-1" x1="208.55" y1="533.41" x2="198.37" y2="561.69"/>
      <line class="cls-1" x1="211.62" y1="534.5" x2="201.8" y2="562.9"/>
      <line class="cls-1" x1="214.71" y1="535.55" x2="205.24" y2="564.07"/>
      <line class="cls-1" x1="217.81" y1="536.56" x2="208.7" y2="565.2"/>
      <line class="cls-1" x1="220.92" y1="537.53" x2="212.17" y2="566.28"/>
      <line class="cls-1" x1="224.04" y1="538.46" x2="215.66" y2="567.32"/>
      <line class="cls-1" x1="227.18" y1="539.35" x2="219.15" y2="568.32"/>
      <line class="cls-1" x1="230.32" y1="540.21" x2="222.67" y2="569.27"/>
      <line class="cls-1" x1="233.48" y1="541.02" x2="226.19" y2="570.18"/>
      <line class="cls-1" x1="236.64" y1="541.79" x2="229.72" y2="571.04"/>
      <line class="cls-1" x1="239.82" y1="542.53" x2="233.26" y2="571.86"/>
      <line class="cls-1" x1="243.01" y1="543.22" x2="236.82" y2="572.63"/>
      <line class="cls-1" x1="246.2" y1="543.87" x2="240.38" y2="573.36"/>
      <line class="cls-1" x1="249.4" y1="544.49" x2="243.95" y2="574.04"/>
      <line class="cls-1" x1="252.61" y1="545.06" x2="247.53" y2="574.68"/>
      <line class="cls-1" x1="255.82" y1="545.59" x2="251.12" y2="575.28"/>
      <line class="cls-1" x1="259.05" y1="546.09" x2="254.72" y2="575.83"/>
      <line class="cls-1" x1="262.27" y1="546.54" x2="258.32" y2="576.33"/>
      <line class="cls-1" x1="265.51" y1="546.95" x2="261.93" y2="576.79"/>
      <line class="cls-1" x1="268.75" y1="547.32" x2="265.54" y2="577.2"/>
      <line class="cls-1" x1="271.99" y1="547.65" x2="269.16" y2="577.57"/>
      <line class="cls-1" x1="275.24" y1="547.94" x2="272.78" y2="577.89"/>
      <line class="cls-1" x1="278.49" y1="548.19" x2="276.41" y2="578.17"/>
      <line class="cls-1" x1="281.74" y1="548.39" x2="280.04" y2="578.4"/>
      <line class="cls-1" x1="284.99" y1="548.56" x2="283.67" y2="578.59"/>
      <line class="cls-1" x1="288.25" y1="548.69" x2="287.31" y2="578.73"/>
      <line class="cls-1" x1="291.51" y1="548.77" x2="290.94" y2="578.82"/>
      <line class="cls-1" x1="294.77" y1="548.81" x2="294.58" y2="578.87"/>
      <line class="cls-1" x1="298.03" y1="548.82" x2="298.22" y2="578.87"/>
      <line class="cls-1" x1="301.29" y1="548.78" x2="301.85" y2="578.83"/>
      <line class="cls-1" x1="304.55" y1="548.7" x2="305.49" y2="578.74"/>
      <line class="cls-1" x1="307.8" y1="548.58" x2="309.12" y2="578.61"/>
      <line class="cls-1" x1="311.06" y1="548.42" x2="312.76" y2="578.43"/>
      <line class="cls-1" x1="314.31" y1="548.22" x2="316.39" y2="578.2"/>
      <line class="cls-1" x1="317.56" y1="547.97" x2="320.01" y2="577.93"/>
      <line class="cls-1" x1="320.81" y1="547.69" x2="323.64" y2="577.61"/>
      <line class="cls-1" x1="324.05" y1="547.37" x2="327.26" y2="577.25"/>
      <line class="cls-1" x1="327.29" y1="547" x2="330.87" y2="576.84"/>
      <line class="cls-1" x1="330.53" y1="546.6" x2="334.48" y2="576.39"/>
      <line class="cls-1" x1="333.75" y1="546.15" x2="338.08" y2="575.89"/>
      <line class="cls-1" x1="336.98" y1="545.66" x2="341.68" y2="575.35"/>
      <line class="cls-1" x1="340.19" y1="545.13" x2="345.27" y2="574.76"/>
      <line class="cls-1" x1="343.4" y1="544.57" x2="348.85" y2="574.12"/>
      <line class="cls-1" x1="346.61" y1="543.96" x2="352.42" y2="573.44"/>
      <line class="cls-1" x1="349.8" y1="543.31" x2="355.99" y2="572.72"/>
      <line class="cls-1" x1="352.99" y1="542.62" x2="359.54" y2="571.95"/>
      <line class="cls-1" x1="356.16" y1="541.89" x2="363.09" y2="571.14"/>
      <line class="cls-1" x1="359.33" y1="541.13" x2="366.62" y2="570.28"/>
      <line class="cls-1" x1="362.49" y1="540.32" x2="370.15" y2="569.38"/>
      <line class="cls-1" x1="365.64" y1="539.47" x2="373.66" y2="568.43"/>
      <line class="cls-1" x1="368.77" y1="538.58" x2="377.16" y2="567.44"/>
      <line class="cls-1" x1="371.9" y1="537.66" x2="380.64" y2="566.41"/>
      <line class="cls-1" x1="375.01" y1="536.69" x2="384.12" y2="565.33"/>
      <line class="cls-1" x1="378.11" y1="535.69" x2="387.58" y2="564.21"/>
      <line class="cls-1" x1="381.2" y1="534.64" x2="391.02" y2="563.05"/>
      <line class="cls-1" x1="384.27" y1="533.56" x2="394.46" y2="561.84"/>
      <line class="cls-1" x1="387.34" y1="532.44" x2="397.87" y2="560.59"/>
      <line class="cls-1" x1="390.38" y1="531.28" x2="401.27" y2="559.29"/>
      <line class="cls-1" x1="393.41" y1="530.08" x2="404.65" y2="557.96"/>
      <line class="cls-1" x1="396.43" y1="528.85" x2="408.02" y2="556.58"/>
      <line class="cls-1" x1="399.43" y1="527.57" x2="411.37" y2="555.16"/>
      <line class="cls-1" x1="402.41" y1="526.26" x2="414.7" y2="553.69"/>
      <line class="cls-1" x1="405.38" y1="524.92" x2="418.01" y2="552.19"/>
      <line class="cls-1" x1="408.33" y1="523.53" x2="421.3" y2="550.64"/>
      <line class="cls-1" x1="411.27" y1="522.11" x2="424.57" y2="549.06"/>
      <line class="cls-1" x1="414.18" y1="520.65" x2="427.82" y2="547.43"/>
      <line class="cls-1" x1="417.08" y1="519.15" x2="431.06" y2="545.76"/>
      <line class="cls-1" x1="419.95" y1="517.62" x2="434.27" y2="544.05"/>
      <line class="cls-1" x1="422.81" y1="516.05" x2="437.45" y2="542.3"/>
      <line class="cls-1" x1="425.65" y1="514.45" x2="440.62" y2="540.51"/>
      <line class="cls-1" x1="428.47" y1="512.81" x2="443.76" y2="538.68"/>
      <line class="cls-1" x1="431.26" y1="511.14" x2="446.89" y2="536.81"/>
      <line class="cls-1" x1="434.04" y1="509.43" x2="449.98" y2="534.9"/>
      <line class="cls-1" x1="436.79" y1="507.68" x2="453.05" y2="532.96"/>
      <line class="cls-1" x1="439.52" y1="505.9" x2="456.1" y2="530.97"/>
      <line class="cls-1" x1="442.23" y1="504.09" x2="459.12" y2="528.95"/>
      <line class="cls-1" x1="444.92" y1="502.24" x2="462.12" y2="526.89"/>
      <line class="cls-1" x1="447.58" y1="500.36" x2="465.09" y2="524.79"/>
      <line class="cls-1" x1="450.22" y1="498.45" x2="468.04" y2="522.65"/>
      <line class="cls-1" x1="452.83" y1="496.5" x2="470.95" y2="520.48"/>
      <line class="cls-1" x1="455.42" y1="494.52" x2="473.84" y2="518.27"/>
      <line class="cls-1" x1="457.99" y1="492.51" x2="476.7" y2="516.03"/>
      <line class="cls-1" x1="460.53" y1="490.47" x2="479.54" y2="513.75"/>
      <line class="cls-1" x1="463.04" y1="488.39" x2="482.34" y2="511.43"/>
      <line class="cls-1" x1="465.53" y1="486.29" x2="485.12" y2="509.08"/>
      <line class="cls-1" x1="467.99" y1="484.15" x2="487.86" y2="506.69"/>
      <line class="cls-1" x1="470.42" y1="481.98" x2="490.58" y2="504.27"/>
      <line class="cls-1" x1="472.83" y1="479.78" x2="493.26" y2="501.82"/>
      <line class="cls-1" x1="475.2" y1="477.55" x2="495.91" y2="499.33"/>
      <line class="cls-1" x1="477.55" y1="475.29" x2="498.54" y2="496.81"/>
      <line class="cls-1" x1="482.17" y1="470.69" x2="503.68" y2="491.67"/>
      <line class="cls-1" x1="484.43" y1="468.34" x2="506.21" y2="489.05"/>
      <line class="cls-1" x1="486.66" y1="465.97" x2="508.7" y2="486.4"/>
      <line class="cls-1" x1="488.87" y1="463.56" x2="511.16" y2="483.72"/>
      <line class="cls-1" x1="491.04" y1="461.13" x2="513.58" y2="481.01"/>
      <line class="cls-1" x1="493.18" y1="458.68" x2="515.97" y2="478.27"/>
      <line class="cls-1" x1="495.29" y1="456.19" x2="518.33" y2="475.5"/>
      <line class="cls-1" x1="497.37" y1="453.68" x2="520.65" y2="472.7"/>
    </g>
    <circle id="center" class="cls-3" cx="296.05" cy="290.06" r="276"/>
  </g>
  <circle id="outercirlce" class="cls-4" cx="296.49" cy="290.04" r="242.16"/>
  <line id="lightline" class="cls-5" x1="55.05" y1="290.31" x2="118.1" y2="289.66"/>
  <line id="templine" class="cls-5" x1="421.88" y1="161.69" x2="464.48" y2="116.5"/>
  <circle id="innercircle" class="cls-5" cx="296.49" cy="290.04" r="179.68"/>
  <path id="quatercircle" class="cls-6" d="M725.34,192.22a215.88,215.88,0,0,1,1.75,307" transform="translate(-277.95 -56.94)"/>
  <circle id="circle2" class="cls-7" cx="296.49" cy="289.66" r="204.24"/>
  <path id="circle" class="cls-8" d="M713.11,484a194.58,194.58,0,0,1-138,57.17c-107.8,0-195.2-87.39-195.2-195.2s87.39-195.2,195.2-195.2a194.56,194.56,0,0,1,136.38,55.55" transform="translate(-277.95 -56.94)"/>
  <line id="moistureLin" class="cls-5" x1="424.19" y1="417.91" x2="468.04" y2="461.08"/>
</svg>
