<svg xmlns="http://www.w3.org/2000/svg" viewBox="-3959 -2653 22 22">
  <defs>
    <style>
      .cls-1, .cls-2, .cls-4 {
        fill: none;
      }

      .cls-1 {
        stroke: #fff;
      }

      .cls-3, .cls-5 {
        stroke: none;
      }

      .cls-5 {
        fill: #fff;
      }
    </style>
  </defs>
  <g id="Group_71" data-name="Group 71" transform="translate(-5263 -2689)">
    <g id="Ellipse_4" data-name="Ellipse 4" class="cls-1" transform="translate(1304 36)">
      <circle class="cls-3" cx="11" cy="11" r="11"/>
      <circle class="cls-4" cx="11" cy="11" r="10.5"/>
    </g>
    <g id="Ellipse_5" data-name="Ellipse 5" class="cls-1" transform="translate(1312 41)">
      <circle class="cls-3" cx="3" cy="3" r="3"/>
      <circle class="cls-4" cx="3" cy="3" r="2.5"/>
    </g>
    <g id="Subtraction_1" data-name="Subtraction 1" class="cls-2" transform="translate(1309 47)">
      <path class="cls-3" d="M11,5.765H1C1,2.586,3.244,0,6,0s5,2.586,5,5.764Z"/>
      <path class="cls-5" d="M 9.911196708679199 4.76531982421875 C 9.52452278137207 2.616160869598389 7.917726993560791 0.9999999403953552 6.00029993057251 0.9999999403953552 C 4.082315444946289 0.9999999403953552 2.47526741027832 2.61616587638855 2.088508605957031 4.76531982421875 L 9.911196708679199 4.76531982421875 M 10.99979972839355 5.76531982421875 L 10.99879932403564 5.76531982421875 L 0.9998998045921326 5.76531982421875 C 0.9998998045921326 2.585789918899536 3.24351978302002 -8.789062633240974e-08 6.00029993057251 -8.789062633240974e-08 C 8.75648021697998 -8.789062633240974e-08 10.99924945831299 2.585789918899536 10.99979972839355 5.764169692993164 L 10.99979972839355 5.76531982421875 Z"/>
    </g>
  </g>
</svg>
